<svg xmlns="http://www.w3.org/2000/svg" xmlns:xlink="http://www.w3.org/1999/xlink" version="1.1" data-diagram-type="ACTIVITY" style="width:794px;height:412px;background:#FFFFFF;" width="794px" height="412px" viewBox="0 0 794 412" zoomAndPan="magnify" preserveAspectRatio="none" contentStyleType="text/css"><?plantuml 1.2026.7beta3?><defs/><g><ellipse cx="336.7152" cy="25" rx="10" ry="10" fill="#222222" style="stroke:#222222;stroke-width:1;"/><polygon points="307.2628,55,366.1676,55,378.1676,67,366.1676,79,307.2628,79,295.2628,67,307.2628,55" fill="#F1F1F1" style="stroke:#181818;stroke-width:0.5;stroke-linejoin:miter;stroke-miterlimit:10;"/><text x="307.2628" y="70.8081" fill="#000000" font-size="11" lengthAdjust="spacing" textLength="9.2061" font-weight="700" font-family="sans-serif">N</text><text x="319.9655" y="70.8081" fill="#000000" font-size="11" lengthAdjust="spacing" textLength="46.2021" font-family="sans-serif">четное?</text><text x="254.899" y="64.4058" fill="#000000" font-size="11" lengthAdjust="spacing" textLength="40.3638" font-family="sans-serif">четное</text><text x="378.1676" y="64.4058" fill="#000000" font-size="11" lengthAdjust="spacing" textLength="54.3232" font-family="sans-serif">нечетное</text><polygon points="123.7617,89,187.5811,89,199.5811,101,187.5811,113,123.7617,113,111.7617,101,123.7617,89" fill="#F1F1F1" style="stroke:#181818;stroke-width:0.5;stroke-linejoin:miter;stroke-miterlimit:10;"/><text x="123.7617" y="104.8081" fill="#000000" font-size="11" lengthAdjust="spacing" textLength="9.2061" font-weight="700" font-family="sans-serif">N</text><text x="136.4644" y="104.8081" fill="#000000" font-size="11" lengthAdjust="spacing" textLength="34.1279" font-family="sans-serif">равно</text><text x="174.0889" y="104.8081" fill="#000000" font-size="11" lengthAdjust="spacing" textLength="7.6538" font-weight="700" font-family="sans-serif">2</text><text x="181.7427" y="104.8081" fill="#000000" font-size="11" lengthAdjust="spacing" textLength="5.8384" font-family="sans-serif">?</text><text x="97.4155" y="98.4058" fill="#000000" font-size="11" lengthAdjust="spacing" textLength="14.3462" font-family="sans-serif">да</text><text x="199.5811" y="98.4058" fill="#000000" font-size="11" lengthAdjust="spacing" textLength="20.3672" font-family="sans-serif">нет</text><rect x="16" y="123" width="127.2266" height="47.9375" fill="#FED5D5" style="stroke:#181818;stroke-width:0.5;" rx="12.5" ry="12.5"/><text x="26" y="144.1387" fill="#000000" font-size="12" lengthAdjust="spacing" textLength="107.2266" font-family="sans-serif">Одно слагаемое:</text><text x="26" y="158.1074" fill="#000000" font-size="12" lengthAdjust="spacing" textLength="8.3496" font-weight="700" font-family="sans-serif">2</text><rect x="163.2266" y="123" width="137.0059" height="89.8438" fill="#FED5D5" style="stroke:#181818;stroke-width:0.5;" rx="12.5" ry="12.5"/><text x="173.2266" y="144.1387" fill="#000000" font-size="12" lengthAdjust="spacing" textLength="99.7207" font-family="sans-serif">Два слагаемых,</text><text x="173.2266" y="158.1074" fill="#000000" font-size="12" lengthAdjust="spacing" textLength="110.584" font-family="sans-serif">найти перебором</text><text x="173.2266" y="172.0762" fill="#000000" font-size="12" lengthAdjust="spacing" textLength="62.7422" font-family="sans-serif">в массиве</text><text x="239.7832" y="172.0762" fill="#000000" font-size="12" lengthAdjust="spacing" textLength="46.4063" font-weight="700" font-family="sans-serif">primes</text><text x="286.1895" y="172.0762" fill="#000000" font-size="12" lengthAdjust="spacing" textLength="4.043" font-family="sans-serif">:</text><text x="173.2266" y="186.0449" fill="#000000" font-size="12" lengthAdjust="spacing" textLength="39.2637" font-weight="700" font-family="sans-serif">prime</text><text x="173.2266" y="200.0137" fill="#000000" font-size="12" lengthAdjust="spacing" textLength="67.7168" font-weight="700" font-family="sans-serif">N − prime</text><polygon points="155.6714,218.8438,167.6714,230.8438,155.6714,242.8438,143.6714,230.8438,155.6714,218.8438" fill="#F1F1F1" style="stroke:#181818;stroke-width:0.5;stroke-linejoin:miter;stroke-miterlimit:10;"/><polygon points="485.0598,89,550.4583,89,562.4583,101,550.4583,113,485.0598,113,473.0598,101,485.0598,89" fill="#F1F1F1" style="stroke:#181818;stroke-width:0.5;stroke-linejoin:miter;stroke-miterlimit:10;"/><text x="485.0598" y="104.8081" fill="#000000" font-size="11" lengthAdjust="spacing" textLength="9.2061" font-weight="700" font-family="sans-serif">N</text><text x="497.7625" y="104.8081" fill="#000000" font-size="11" lengthAdjust="spacing" textLength="52.6958" font-family="sans-serif">простое?</text><text x="458.7136" y="98.4058" fill="#000000" font-size="11" lengthAdjust="spacing" textLength="14.3462" font-family="sans-serif">да</text><text x="562.4583" y="98.4058" fill="#000000" font-size="11" lengthAdjust="spacing" textLength="20.3672" font-family="sans-serif">нет</text><rect x="340.2324" y="123" width="127.2266" height="47.9375" fill="#FED5D5" style="stroke:#181818;stroke-width:0.5;" rx="12.5" ry="12.5"/><text x="350.2324" y="144.1387" fill="#000000" font-size="12" lengthAdjust="spacing" textLength="107.2266" font-family="sans-serif">Одно слагаемое:</text><text x="350.2324" y="158.1074" fill="#000000" font-size="12" lengthAdjust="spacing" textLength="10.043" font-weight="700" font-family="sans-serif">N</text><polygon points="582.4167,123,680.928,123,692.928,135,680.928,147,582.4167,147,570.4167,135,582.4167,123" fill="#F1F1F1" style="stroke:#181818;stroke-width:0.5;stroke-linejoin:miter;stroke-miterlimit:10;"/><text x="582.4167" y="138.8081" fill="#000000" font-size="11" lengthAdjust="spacing" textLength="4.2915" font-family="sans-serif">(</text><text x="586.7083" y="138.8081" fill="#000000" font-size="11" lengthAdjust="spacing" textLength="33.7358" font-weight="700" font-family="sans-serif">N − 2</text><text x="620.4441" y="138.8081" fill="#000000" font-size="11" lengthAdjust="spacing" textLength="60.4839" font-family="sans-serif">) простое?</text><text x="556.0706" y="132.4058" fill="#000000" font-size="11" lengthAdjust="spacing" textLength="14.3462" font-family="sans-serif">да</text><text x="692.928" y="132.4058" fill="#000000" font-size="11" lengthAdjust="spacing" textLength="20.3672" font-family="sans-serif">нет</text><rect x="497.459" y="157" width="119.9492" height="61.9063" fill="#FED5D5" style="stroke:#181818;stroke-width:0.5;" rx="12.5" ry="12.5"/><text x="507.459" y="178.1387" fill="#000000" font-size="12" lengthAdjust="spacing" textLength="99.9492" font-family="sans-serif">Два слагаемых:</text><text x="507.459" y="192.1074" fill="#000000" font-size="12" lengthAdjust="spacing" textLength="8.3496" font-weight="700" font-family="sans-serif">2</text><text x="507.459" y="206.0762" fill="#000000" font-size="12" lengthAdjust="spacing" textLength="36.8027" font-weight="700" font-family="sans-serif">N − 2</text><rect x="637.4082" y="157" width="137.0059" height="103.8125" fill="#FED5D5" style="stroke:#181818;stroke-width:0.5;" rx="12.5" ry="12.5"/><text x="647.4082" y="178.1387" fill="#000000" font-size="12" lengthAdjust="spacing" textLength="98.666" font-family="sans-serif">Три слагаемых,</text><text x="647.4082" y="192.1074" fill="#000000" font-size="12" lengthAdjust="spacing" textLength="110.584" font-family="sans-serif">найти перебором</text><text x="647.4082" y="206.0762" fill="#000000" font-size="12" lengthAdjust="spacing" textLength="62.7422" font-family="sans-serif">в массиве</text><text x="713.9648" y="206.0762" fill="#000000" font-size="12" lengthAdjust="spacing" textLength="46.4063" font-weight="700" font-family="sans-serif">primes</text><text x="760.3711" y="206.0762" fill="#000000" font-size="12" lengthAdjust="spacing" textLength="4.043" font-family="sans-serif">:</text><text x="647.4082" y="220.0449" fill="#000000" font-size="12" lengthAdjust="spacing" textLength="8.3496" font-weight="700" font-family="sans-serif">3</text><text x="647.4082" y="234.0137" fill="#000000" font-size="12" lengthAdjust="spacing" textLength="39.2637" font-weight="700" font-family="sans-serif">prime</text><text x="647.4082" y="247.9824" fill="#000000" font-size="12" lengthAdjust="spacing" textLength="94.4766" font-weight="700" font-family="sans-serif">N − 3 − prime</text><polygon points="631.6724,266.8125,643.6724,278.8125,631.6724,290.8125,619.6724,278.8125,631.6724,266.8125" fill="#F1F1F1" style="stroke:#181818;stroke-width:0.5;stroke-linejoin:miter;stroke-miterlimit:10;"/><polygon points="517.759,296.8125,529.759,308.8125,517.759,320.8125,505.759,308.8125,517.759,296.8125" fill="#F1F1F1" style="stroke:#181818;stroke-width:0.5;stroke-linejoin:miter;stroke-miterlimit:10;"/><polygon points="336.7152,326.8125,348.7152,338.8125,336.7152,350.8125,324.7152,338.8125,336.7152,326.8125" fill="#F1F1F1" style="stroke:#181818;stroke-width:0.5;stroke-linejoin:miter;stroke-miterlimit:10;"/><ellipse cx="336.7152" cy="381.8125" rx="11" ry="11" fill="none" style="stroke:#222222;stroke-width:1;"/><ellipse cx="336.7152" cy="381.8125" rx="6" ry="6" fill="#222222" style="stroke:#222222;stroke-width:1;"/><line x1="111.7617" y1="101" x2="79.6133" y2="101" style="stroke:#181818;stroke-width:1;"/><line x1="79.6133" y1="101" x2="79.6133" y2="123" style="stroke:#181818;stroke-width:1;"/><polygon points="75.6133,113,79.6133,123,83.6133,113,79.6133,117" fill="#181818" style="stroke:#181818;stroke-width:1;stroke-linejoin:miter;stroke-miterlimit:10;"/><line x1="199.5811" y1="101" x2="231.7295" y2="101" style="stroke:#181818;stroke-width:1;"/><line x1="231.7295" y1="101" x2="231.7295" y2="123" style="stroke:#181818;stroke-width:1;"/><polygon points="227.7295,113,231.7295,123,235.7295,113,231.7295,117" fill="#181818" style="stroke:#181818;stroke-width:1;stroke-linejoin:miter;stroke-miterlimit:10;"/><line x1="79.6133" y1="170.9375" x2="79.6133" y2="230.8438" style="stroke:#181818;stroke-width:1;"/><line x1="79.6133" y1="230.8438" x2="143.6714" y2="230.8438" style="stroke:#181818;stroke-width:1;"/><polygon points="133.6714,226.8438,143.6714,230.8438,133.6714,234.8438,137.6714,230.8438" fill="#181818" style="stroke:#181818;stroke-width:1;stroke-linejoin:miter;stroke-miterlimit:10;"/><line x1="231.7295" y1="212.8438" x2="231.7295" y2="230.8438" style="stroke:#181818;stroke-width:1;"/><line x1="231.7295" y1="230.8438" x2="167.6714" y2="230.8438" style="stroke:#181818;stroke-width:1;"/><polygon points="177.6714,226.8438,167.6714,230.8438,177.6714,234.8438,173.6714,230.8438" fill="#181818" style="stroke:#181818;stroke-width:1;stroke-linejoin:miter;stroke-miterlimit:10;"/><line x1="570.4167" y1="135" x2="557.4336" y2="135" style="stroke:#181818;stroke-width:1;"/><line x1="557.4336" y1="135" x2="557.4336" y2="157" style="stroke:#181818;stroke-width:1;"/><polygon points="553.4336,147,557.4336,157,561.4336,147,557.4336,151" fill="#181818" style="stroke:#181818;stroke-width:1;stroke-linejoin:miter;stroke-miterlimit:10;"/><line x1="692.928" y1="135" x2="705.9111" y2="135" style="stroke:#181818;stroke-width:1;"/><line x1="705.9111" y1="135" x2="705.9111" y2="157" style="stroke:#181818;stroke-width:1;"/><polygon points="701.9111,147,705.9111,157,709.9111,147,705.9111,151" fill="#181818" style="stroke:#181818;stroke-width:1;stroke-linejoin:miter;stroke-miterlimit:10;"/><line x1="557.4336" y1="218.9063" x2="557.4336" y2="278.8125" style="stroke:#181818;stroke-width:1;"/><line x1="557.4336" y1="278.8125" x2="619.6724" y2="278.8125" style="stroke:#181818;stroke-width:1;"/><polygon points="609.6724,274.8125,619.6724,278.8125,609.6724,282.8125,613.6724,278.8125" fill="#181818" style="stroke:#181818;stroke-width:1;stroke-linejoin:miter;stroke-miterlimit:10;"/><line x1="705.9111" y1="260.8125" x2="705.9111" y2="278.8125" style="stroke:#181818;stroke-width:1;"/><line x1="705.9111" y1="278.8125" x2="643.6724" y2="278.8125" style="stroke:#181818;stroke-width:1;"/><polygon points="653.6724,274.8125,643.6724,278.8125,653.6724,282.8125,649.6724,278.8125" fill="#181818" style="stroke:#181818;stroke-width:1;stroke-linejoin:miter;stroke-miterlimit:10;"/><line x1="473.0598" y1="101" x2="403.8457" y2="101" style="stroke:#181818;stroke-width:1;"/><line x1="403.8457" y1="101" x2="403.8457" y2="123" style="stroke:#181818;stroke-width:1;"/><polygon points="399.8457,113,403.8457,123,407.8457,113,403.8457,117" fill="#181818" style="stroke:#181818;stroke-width:1;stroke-linejoin:miter;stroke-miterlimit:10;"/><line x1="562.4583" y1="101" x2="631.6724" y2="101" style="stroke:#181818;stroke-width:1;"/><line x1="631.6724" y1="101" x2="631.6724" y2="123" style="stroke:#181818;stroke-width:1;"/><polygon points="627.6724,113,631.6724,123,635.6724,113,631.6724,117" fill="#181818" style="stroke:#181818;stroke-width:1;stroke-linejoin:miter;stroke-miterlimit:10;"/><line x1="403.8457" y1="170.9375" x2="403.8457" y2="308.8125" style="stroke:#181818;stroke-width:1;"/><line x1="403.8457" y1="308.8125" x2="505.759" y2="308.8125" style="stroke:#181818;stroke-width:1;"/><polygon points="495.759,304.8125,505.759,308.8125,495.759,312.8125,499.759,308.8125" fill="#181818" style="stroke:#181818;stroke-width:1;stroke-linejoin:miter;stroke-miterlimit:10;"/><line x1="631.6724" y1="290.8125" x2="631.6724" y2="308.8125" style="stroke:#181818;stroke-width:1;"/><line x1="631.6724" y1="308.8125" x2="529.759" y2="308.8125" style="stroke:#181818;stroke-width:1;"/><polygon points="539.759,304.8125,529.759,308.8125,539.759,312.8125,535.759,308.8125" fill="#181818" style="stroke:#181818;stroke-width:1;stroke-linejoin:miter;stroke-miterlimit:10;"/><line x1="295.2628" y1="67" x2="155.6714" y2="67" style="stroke:#181818;stroke-width:1;"/><line x1="155.6714" y1="67" x2="155.6714" y2="89" style="stroke:#181818;stroke-width:1;"/><polygon points="151.6714,79,155.6714,89,159.6714,79,155.6714,83" fill="#181818" style="stroke:#181818;stroke-width:1;stroke-linejoin:miter;stroke-miterlimit:10;"/><line x1="378.1676" y1="67" x2="517.759" y2="67" style="stroke:#181818;stroke-width:1;"/><line x1="517.759" y1="67" x2="517.759" y2="89" style="stroke:#181818;stroke-width:1;"/><polygon points="513.759,79,517.759,89,521.759,79,517.759,83" fill="#181818" style="stroke:#181818;stroke-width:1;stroke-linejoin:miter;stroke-miterlimit:10;"/><line x1="155.6714" y1="242.8438" x2="155.6714" y2="338.8125" style="stroke:#181818;stroke-width:1;"/><line x1="155.6714" y1="338.8125" x2="324.7152" y2="338.8125" style="stroke:#181818;stroke-width:1;"/><polygon points="314.7152,334.8125,324.7152,338.8125,314.7152,342.8125,318.7152,338.8125" fill="#181818" style="stroke:#181818;stroke-width:1;stroke-linejoin:miter;stroke-miterlimit:10;"/><line x1="517.759" y1="320.8125" x2="517.759" y2="338.8125" style="stroke:#181818;stroke-width:1;"/><line x1="517.759" y1="338.8125" x2="348.7152" y2="338.8125" style="stroke:#181818;stroke-width:1;"/><polygon points="358.7152,334.8125,348.7152,338.8125,358.7152,342.8125,354.7152,338.8125" fill="#181818" style="stroke:#181818;stroke-width:1;stroke-linejoin:miter;stroke-miterlimit:10;"/><line x1="336.7152" y1="35" x2="336.7152" y2="55" style="stroke:#181818;stroke-width:1;"/><polygon points="332.7152,45,336.7152,55,340.7152,45,336.7152,49" fill="#181818" style="stroke:#181818;stroke-width:1;stroke-linejoin:miter;stroke-miterlimit:10;"/><line x1="336.7152" y1="350.8125" x2="336.7152" y2="370.8125" style="stroke:#181818;stroke-width:1;"/><polygon points="332.7152,360.8125,336.7152,370.8125,340.7152,360.8125,336.7152,364.8125" fill="#181818" style="stroke:#181818;stroke-width:1;stroke-linejoin:miter;stroke-miterlimit:10;"/><?plantuml-src bL5DJi9W4Dtt59EuQIUk86mgmGsux1rCBB698g4z090OIDWProuymIVQf4OeLvZl2fx4cO-sVg9WMVHdPjwyzp8lJYv7YHFrmKKC447FADLJMbDEwRa7oNKu0DTkUWw01H-JegLC0B61MAtG6oc10lZqn8KWz8G-6FxAJqeh8VCDmcoUGRjzSj7hjhgjJeVRuKqSCirQb4kYHvPIEpHweUzFpPonYjxPPmQquRKnZryevszEgorY2Qohz8GfCkPAMNeuYcx36B6qOch4eWhWS_u0HU-NnS5Lr7SietlFH1jnmRhJ7tSzxaX1dIE9fblwvhDw_siVkgnV84n4rN_5lkldBqT2_ymMiht1rOckJdXYhMdPjAFyjjqy56aPQXMkUSV9tV0B?></g></svg>